<?xml version="1.0" encoding="UTF-8"?>
<svg version="1.1" xmlns="http://www.w3.org/2000/svg" width="640" height="415">
<path d="M0 0 C1.75091425 1.54997806 1.75091425 1.54997806 3.8125 2.48828125 C4.75609375 1.79992187 4.75609375 1.79992187 5.71875 1.09765625 C20.23216798 -9.30654098 35.44891668 -13.53120407 53.30908203 -10.70825195 C62.09874716 -9.07434233 70.73767293 -6.51268225 76.8125 0.48828125 C83.41051248 10.23944916 86.12952448 18.02677919 86.03955078 29.64624023 C86.03984283 30.64212662 86.04013489 31.638013 86.04043579 32.66407776 C86.03904864 35.93760052 86.02351629 39.21089227 86.0078125 42.484375 C86.00408019 44.76123429 86.00123425 47.03809519 85.99923706 49.31495667 C85.9916178 55.29410268 85.97198392 61.27315083 85.9498291 67.2522583 C85.9293339 73.35891394 85.92022749 79.46558547 85.91015625 85.57226562 C85.88873645 97.54432065 85.85356817 109.51627748 85.8125 121.48828125 C78.5525 121.48828125 71.2925 121.48828125 63.8125 121.48828125 C63.8031543 118.54164551 63.79380859 115.59500977 63.78417969 112.55908203 C63.75034277 102.80006579 63.69475635 93.04125952 63.62859726 83.28241158 C63.58916589 77.36827647 63.55695597 71.45428929 63.54150391 65.54003906 C63.52630898 59.82752071 63.49181247 54.11540917 63.44419098 48.40307236 C63.42940652 46.22874369 63.42146068 44.05435694 63.42061615 41.87997818 C63.41823595 38.82335796 63.3910709 35.76785245 63.35839844 32.71142578 C63.3634288 31.82165543 63.36845917 30.93188507 63.37364197 30.01515198 C63.2479724 22.36677355 61.19162718 15.7770747 56.6875 9.55078125 C50.36130196 5.01242179 42.49126998 3.41542328 34.8125 4.48828125 C26.56275647 6.26684959 20.8450572 8.58978087 14.8125 14.48828125 C14.1525 14.48828125 13.4925 14.48828125 12.8125 14.48828125 C12.8125 49.79828125 12.8125 85.10828125 12.8125 121.48828125 C5.5525 121.48828125 -1.7075 121.48828125 -9.1875 121.48828125 C-9.1968457 118.47058594 -9.20619141 115.45289063 -9.21582031 112.34375 C-9.24962274 102.36120446 -9.30519008 92.37886493 -9.37140274 82.39648438 C-9.41087242 76.3455295 -9.44306361 70.29472005 -9.45849609 64.24365234 C-9.47366571 58.40146954 -9.50811753 52.55968655 -9.55580902 46.71768188 C-9.57061951 44.49145996 -9.57854082 42.26518095 -9.57938385 40.03890991 C-9.58175616 36.9148318 -9.60885855 33.79185619 -9.64160156 30.66796875 C-9.6365712 29.75230637 -9.63154083 28.83664398 -9.62635803 27.89323425 C-9.73726471 21.03110912 -11.33530804 15.59213721 -16.046875 10.46484375 C-25.34148111 3.82035261 -35.06021249 3.58763918 -46.1875 4.48828125 C-52.6225 5.97328125 -52.6225 5.97328125 -59.1875 7.48828125 C-59.1875 45.10828125 -59.1875 82.72828125 -59.1875 121.48828125 C-66.4475 121.48828125 -73.7075 121.48828125 -81.1875 121.48828125 C-81.1875 80.56828125 -81.1875 39.64828125 -81.1875 -2.51171875 C-56.40980236 -12.83575943 -22.40889902 -18.68742115 0 0 Z " fill="#211C20" transform="translate(81.1875,291.51171875)"/>
<path d="M0 0 C7.26 0 14.52 0 22 0 C22.33 19.14 22.66 38.28 23 58 C27.29 56.35 31.58 54.7 36 53 C49.42440083 49.8215207 65.78638996 49.85940774 78 57 C86.31425451 62.73724251 91.90999699 70.38890835 94.06225586 80.3203125 C95.7185771 89.79605702 95.24471934 99.49007916 95.1953125 109.07421875 C95.19157682 111.21083951 95.18873247 113.34746199 95.18673706 115.48408508 C95.17914431 121.07519357 95.15953374 126.66619618 95.1373291 132.25726318 C95.11677626 137.97553068 95.10771526 143.69381549 95.09765625 149.41210938 C95.07628332 160.60812663 95.04113719 171.8040379 95 183 C87.41 183 79.82 183 72 183 C71.9906543 180.01783447 71.98130859 177.03566895 71.97167969 173.96313477 C71.93786022 164.09235389 71.88228343 154.22178098 71.81609726 144.35116673 C71.77664653 138.36862173 71.74444606 132.38622341 71.72900391 126.40356445 C71.71382179 120.62621389 71.67934784 114.84926661 71.63169098 109.07209587 C71.61689336 106.87182057 71.60895992 104.67148769 71.60811615 102.4711628 C71.60573994 99.38081364 71.57860652 96.29157307 71.54589844 93.20141602 C71.5509288 92.29869965 71.55595917 91.39598328 71.56114197 90.46591187 C71.44403529 83.27942718 69.7681927 77.00546636 64.8125 71.625 C55.30215377 66.13013329 44.90619839 65.41777498 34.21484375 67.8671875 C30.3720486 69.03321837 26.59736284 70.20131858 23 72 C22.67 108.63 22.34 145.26 22 183 C14.74 183 7.48 183 0 183 C0 122.61 0 62.22 0 0 Z " fill="#211D21" transform="translate(360,230)"/>
<path d="M0 0 C14.77187554 15.08375775 17.17921463 36.97198895 17.15673828 57.07226562 C16.92327188 77.32307694 12.77217003 97.49140189 -2.21484375 112.23046875 C-14.23106732 122.37988616 -29.07883059 123.20287895 -44.08984375 122.140625 C-56.5158237 120.05074387 -65.85325684 113.81545959 -73.34375 103.79296875 C-86.66423044 83.55895036 -88.02207029 55.12736317 -83.50219727 31.89648438 C-80.6649534 18.93894263 -75.08117614 4.34081344 -64.08984375 -3.859375 C-43.59280924 -16.3669054 -18.45080492 -16.41604326 0 0 Z M-54.55859375 11.5546875 C-66.00993268 30.89342825 -65.8393096 59.42927283 -61.07421875 80.71484375 C-58.50228157 89.66559337 -55.5358433 98.99227386 -47.02734375 103.890625 C-40.36443671 107.34789696 -33.48689265 108.14628189 -26.27734375 105.953125 C-19.53041461 103.2711906 -14.49499407 99.68722713 -11.08984375 93.140625 C-1.69238361 69.11044146 -1.70941284 37.91070749 -12.08984375 14.140625 C-15.6023637 8.21772783 -19.9856605 4.96791252 -26.484375 2.765625 C-37.0663241 0.22722642 -47.66401502 2.8063777 -54.55859375 11.5546875 Z " fill="#211C20" transform="translate(266.08984375,292.859375)"/>
<path d="M0 0 C11.94126963 11.19494028 15.20424308 27.40749629 16.25 43.1875 C16.26737094 44.93636429 16.27237617 46.68538597 16.26635742 48.43432617 C16.26399582 49.32681564 16.26163422 50.21930511 16.25920105 51.13883972 C16.25464653 52.15292656 16.25464653 52.15292656 16.25 53.1875 C6.42779273 54.62590889 -3.39496664 56.06048024 -13.21844769 57.49016571 C-17.77994272 58.15415744 -22.34123762 58.81946561 -26.90209961 59.48779297 C-31.30421049 60.13280806 -35.70681467 60.77435111 -40.10978127 61.41349792 C-41.78885718 61.6578584 -43.46775212 61.90346586 -45.14645958 62.15034485 C-47.49910847 62.4961187 -49.85236387 62.83743912 -52.20581055 63.17773438 C-52.8984903 63.2805925 -53.59117004 63.38345062 -54.30484009 63.48942566 C-57.8160964 63.99222949 -61.20254021 64.29786862 -64.75 64.1875 C-62.40821847 78.48655995 -60.17523911 90.15037406 -48.75 100.1875 C-37.88702583 107.21458715 -24.70941686 107.92288872 -12.21875 105.36328125 C-5.17069089 103.74065093 -5.17069089 103.74065093 1.51171875 101.0546875 C3.25 100.1875 3.25 100.1875 6.25 100.1875 C7.08986084 102.12217942 7.92168027 104.06035129 8.75 106 C9.44609375 107.61841797 9.44609375 107.61841797 10.15625 109.26953125 C11.25 112.1875 11.25 112.1875 11.25 115.1875 C-1.34897661 121.69268588 -12.86693142 123.44656706 -26.875 123.5625 C-27.95918213 123.57643799 -29.04336426 123.59037598 -30.16040039 123.60473633 C-45.41951387 123.51571809 -58.47510589 118.9759739 -69.68359375 108.44921875 C-86.01231814 90.57713667 -86.65722456 67.34531819 -85.91845703 44.44970703 C-85.04013834 27.44087473 -78.64318287 10.99862129 -66.20703125 -0.890625 C-46.76898656 -16.09494613 -18.85899244 -15.7932449 0 0 Z M-55.75 12.1875 C-64.71174375 24.54017382 -65.95141076 37.30548307 -65.75 52.1875 C-45.33216002 49.7269992 -25.05038607 46.45796789 -4.75 43.1875 C-4.88515147 40.9658061 -5.02710231 38.7445252 -5.171875 36.5234375 C-5.25018555 35.2864209 -5.32849609 34.0494043 -5.40917969 32.77490234 C-6.24208624 24.00790456 -9.06376186 15.54453959 -15.640625 9.4296875 C-27.87224974 -0.23422975 -44.83104734 0.77223131 -55.75 12.1875 Z " fill="#211C20" transform="translate(554.75,291.8125)"/>
<path d="M0 0 C5.61 0 11.22 0 17 0 C19.84070433 7.96857927 21.82637382 16.09966968 23.79296875 24.31640625 C24.14706528 25.78336146 24.50150733 27.25023331 24.85627747 28.71702576 C25.78195149 32.54821971 26.70297578 36.3805163 27.62298584 40.21307373 C28.56547419 44.13557389 29.51242534 48.05699619 30.45898438 51.97851562 C32.31032138 59.6513048 34.15674011 67.32526644 36 75 C36.24834091 74.10464035 36.49668182 73.2092807 36.75254822 72.28678894 C39.09133111 63.85515584 41.43085554 55.42372893 43.77121639 46.99253368 C44.97443451 42.65781531 46.17736418 38.32301731 47.37963867 33.98803711 C48.53957656 29.80574877 49.7002669 25.62366994 50.86148262 21.44173622 C51.30471245 19.84499893 51.74766959 18.24818591 52.19035149 16.65129662 C52.80969493 14.41731465 53.43000115 12.18360214 54.05053711 9.94995117 C54.2339566 9.28748383 54.4173761 8.62501648 54.60635376 7.94247437 C55.34935588 5.27127887 56.12298324 2.63105027 57 0 C61.95 0 66.9 0 72 0 C75.10011397 7.61521771 77.12442665 15.50546688 79.23046875 23.4375 C79.62939715 24.92831591 80.02867962 26.41903712 80.42829895 27.90966797 C81.4724291 31.80816687 82.51178465 35.70792281 83.55010986 39.60797119 C84.61317643 43.59749929 85.68081051 47.5858045 86.74804688 51.57421875 C88.83647266 59.38163099 90.91984981 67.19037882 93 75 C93.19378738 74.22262985 93.38757477 73.4452597 93.5872345 72.64433289 C95.42461586 65.27466891 97.26316489 57.90529765 99.10298634 50.53624249 C100.04853735 46.74884688 100.99365571 42.96134446 101.93774414 39.17358398 C102.85092662 35.50989151 103.76529932 31.84649789 104.68045616 28.18329811 C105.02728303 26.79416024 105.37369974 25.40491989 105.71967506 24.01556969 C107.72031561 15.98279135 109.78945988 7.97768675 112 0 C117.28 0 122.56 0 128 0 C125.13179403 11.74815143 121.96660983 23.37435578 118.61328125 34.9921875 C118.10554253 36.75809483 117.59799308 38.5240566 117.09062195 40.29006958 C116.03766992 43.95283818 114.9828308 47.61505596 113.92651367 51.27685547 C112.57149945 55.97449843 111.22078294 60.67336439 109.87136555 65.37261772 C108.828845 69.00174411 107.7843912 72.63031178 106.73930931 76.25870132 C106.23998971 77.99294846 105.74120867 79.72735075 105.24297523 81.46191025 C104.55103704 83.86953611 103.85657021 86.2764178 103.16137695 88.68310547 C102.95618942 89.39883728 102.75100189 90.11456909 102.53959656 90.85198975 C101.11436757 95.77126487 101.11436757 95.77126487 100 98 C95.05 98 90.1 98 85 98 C78.07 73.58 71.14 49.16 64 24 C57.87864215 45.35933245 57.87864215 45.35933245 51.7644043 66.72070312 C50.57189941 70.87402344 50.57189941 70.87402344 50.01081848 72.82507324 C49.62392391 74.17271307 49.23829679 75.52071719 48.85371399 76.86901855 C46.81485947 84.01362602 44.76677872 91.09659688 42 98 C37.38 98 32.76 98 28 98 C25.8296438 92.40810054 23.99148159 86.81660817 22.36450195 81.04541016 C21.99808594 79.7610054 21.99808594 79.7610054 21.62426758 78.45065308 C20.82560976 75.64772432 20.03180322 72.84344916 19.23828125 70.0390625 C18.68228092 68.08224391 18.12605906 66.12548826 17.56962585 64.16879272 C16.40845004 60.08269704 15.24962264 55.99594498 14.0925293 51.90869141 C12.60694478 46.66164204 11.11598285 41.41613894 9.62334919 36.17109108 C8.47616509 32.13804237 7.33154315 28.10427012 6.1877346 24.07026291 C5.63863633 22.13468994 5.0887936 20.19932801 4.53820229 18.26417923 C3.77200071 15.56958118 3.00918574 12.87404774 2.24731445 10.17822266 C1.90373146 8.97356354 1.90373146 8.97356354 1.5532074 7.74456787 C0 2.2286582 0 2.2286582 0 0 Z " fill="#211C20" transform="translate(176,44)"/>
<path d="M0 0 C5.61 0 11.22 0 17 0 C17 15.84 17 31.68 17 48 C20.3 46.68 23.6 45.36 27 44 C38.52650857 41.69469829 49.79475285 42.12025154 60.25 47.75 C66.53298177 52.89062144 70.3927197 57.94944036 72 66 C72.4014794 71.83829277 72.35015338 77.65487679 72.29296875 83.50390625 C72.28736481 85.19497804 72.28309849 86.88605475 72.28010559 88.57713318 C72.26871953 93.00112653 72.23930702 97.42481853 72.20599365 101.84869385 C72.17515732 106.37369716 72.16157143 110.89874975 72.14648438 115.42382812 C72.11443048 124.28270493 72.06171449 133.14128012 72 142 C66.39 142 60.78 142 55 142 C54.9906543 139.76992187 54.98130859 137.53984375 54.97167969 135.2421875 C54.93783346 127.85400535 54.8822422 120.46610027 54.81609726 113.07814026 C54.7766758 108.60107001 54.74446131 104.12419487 54.72900391 99.64697266 C54.713802 95.32194587 54.67929437 90.99745569 54.63169098 86.67266846 C54.61691347 85.02700478 54.60896108 83.38126448 54.60811615 81.73553467 C54.75925886 69.75740407 54.75925886 69.75740407 50 59 C45.47187671 55.49070445 41.05908105 54.82972375 35.4375 54.6875 C34.48746094 54.65011719 33.53742187 54.61273438 32.55859375 54.57421875 C27.62439813 55.02762265 27.62439813 55.02762265 18 59 C17.67 86.39 17.34 113.78 17 142 C11.39 142 5.78 142 0 142 C0 95.14 0 48.28 0 0 Z " fill="#211D21" transform="translate(17,0)"/>
<path d="M0 0 C0 12.21 0 24.42 0 37 C7.59 37 15.18 37 23 37 C23 41.62 23 46.24 23 51 C15.41 51 7.82 51 0 51 C0.06303268 62.18812671 0.13854039 73.37598141 0.23571491 84.56386471 C0.28034957 89.7594388 0.31962088 94.95493572 0.34643555 100.15063477 C0.37253742 105.16934101 0.41298841 110.18774919 0.46318626 115.20627022 C0.4798085 117.11627036 0.49135158 119.026322 0.49761391 120.9363842 C0.5073057 123.6218848 0.53542484 126.3066308 0.56762695 128.99194336 C0.56619186 129.77310013 0.56475677 130.5542569 0.5632782 131.35908508 C0.67370741 137.91538713 1.80835322 144.34345844 6.0625 149.5 C11.38750546 152.21915172 17.11944727 152 23 152 C23 156.62 23 161.24 23 166 C14.73499673 169.30600131 5.47270546 169.19141179 -3 166.375 C-12.83697286 162.14874499 -17.04345252 155.86481469 -21 146 C-22.22209728 141.39911082 -22.134145 136.89410534 -22.11352539 132.1706543 C-22.11367142 131.29210281 -22.11381744 130.41355133 -22.1139679 129.50837708 C-22.11327299 126.61363224 -22.10550036 123.7189523 -22.09765625 120.82421875 C-22.09579057 118.81354304 -22.09436737 116.80286688 -22.09336853 114.79219055 C-22.08955517 109.50681294 -22.07973495 104.22146292 -22.06866455 98.93609619 C-22.05842505 93.54008355 -22.05386547 88.14406644 -22.04882812 82.74804688 C-22.03811163 72.16535248 -22.02104937 61.58267854 -22 51 C-26.95 51 -31.9 51 -37 51 C-37 46.38 -37 41.76 -37 37 C-32.05 37 -27.1 37 -22 37 C-22 27.1 -22 17.2 -22 7 C-18.555625 5.845 -15.11125 4.69 -11.5625 3.5 C-10.47525635 3.13455078 -9.3880127 2.76910156 -8.26782227 2.39257812 C-7.41760498 2.10833984 -6.5673877 1.82410156 -5.69140625 1.53125 C-4.37958374 1.09135742 -4.37958374 1.09135742 -3.04125977 0.64257812 C-1 0 -1 0 0 0 Z " fill="#211C21" transform="translate(322,246)"/>
<path d="M0 0 C0.69480469 0.55171875 1.38960937 1.1034375 2.10546875 1.671875 C2.73066406 2.11015625 3.35585937 2.5484375 4 3 C6.4091705 2.49113354 6.4091705 2.49113354 9 1 C10.35236843 0.30896943 11.70666588 -0.37829429 13.0625 -1.0625 C13.71347656 -1.40410156 14.36445313 -1.74570313 15.03515625 -2.09765625 C22.45876379 -5.50690743 33.12816689 -5.09674936 40.9375 -3.0625 C46.21393337 -0.9539253 49.98600644 3.2874729 53 8 C55.68122292 14.84694098 55.25307924 21.76257066 55.1953125 29.02734375 C55.19157681 30.38497203 55.18873247 31.74260303 55.18673706 33.10023499 C55.17914431 36.65287882 55.15953397 40.20535603 55.1373291 43.75793457 C55.11677613 47.3913345 55.10771524 51.02476167 55.09765625 54.65820312 C55.07628337 61.77220962 55.04113741 68.88607632 55 76 C50.38 76 45.76 76 41 76 C40.98541748 74.1835498 40.97083496 72.36709961 40.95581055 70.49560547 C40.90407344 64.48044175 40.83876465 58.4655524 40.76428509 52.45063591 C40.71964043 48.80532943 40.68037175 45.16013319 40.65356445 41.51464844 C40.62747189 37.99365763 40.58702858 34.47309237 40.53681374 30.95236588 C40.51211642 28.96173999 40.50211553 26.97094925 40.49235535 24.98019409 C40.47256119 23.75938141 40.45276703 22.53856873 40.43237305 21.28076172 C40.42126999 20.21042694 40.41016693 19.14009216 40.39872742 18.037323 C39.92956722 14.46347532 38.88083765 12.06459711 37 9 C31.95473241 6.03219554 27.78918582 5.30875393 22 6 C18.7 7.65 15.4 9.3 12 11 C11.67 32.45 11.34 53.9 11 76 C6.38 76 1.76 76 -3 76 C-3.01458252 74.17831299 -3.02916504 72.35662598 -3.04418945 70.47973633 C-3.09589077 64.4525912 -3.16119001 58.42572119 -3.23571491 52.39882374 C-3.28039218 48.74564138 -3.31965377 45.09256985 -3.34643555 41.43920898 C-3.37249545 37.91173821 -3.41291592 34.38469454 -3.46318626 30.85748863 C-3.48792576 28.86072321 -3.49789298 26.86379245 -3.50764465 24.86689758 C-3.52743881 23.64600937 -3.54723297 22.42512115 -3.56762695 21.16723633 C-3.58428154 19.55840324 -3.58428154 19.55840324 -3.60127258 17.91706848 C-4.17410721 13.72624097 -5.82235594 11.06367851 -8.9375 8.25 C-12.62285106 6.0164539 -16.06006795 5.86297049 -20.3125 5.875 C-21.21613281 5.87242187 -22.11976563 5.86984375 -23.05078125 5.8671875 C-26.38523578 6.01734837 -29.69571299 6.527959 -33 7 C-33 29.77 -33 52.54 -33 76 C-37.62 76 -42.24 76 -47 76 C-47 51.25 -47 26.5 -47 1 C-33.18967958 -4.0219347 -13.61401702 -8.64244392 0 0 Z " fill="#211C21" transform="translate(181,167)"/>
<path d="M0 0 C10.39245012 9.15617353 13.90066166 22.53787169 15.1015625 35.8515625 C16.10752618 53.11178141 14.10088754 69.96757797 3.37109375 84.13671875 C-4.39173449 92.5035199 -13.76016028 94.29350976 -24.8984375 94.8515625 C-35.31927204 94.37343009 -44.07064495 90.70033785 -51.265625 83.0703125 C-62.35608096 68.00002784 -63.76200174 47.71143474 -61.4375 29.703125 C-59.57346346 19.06715178 -55.64473536 6.8917037 -46.8984375 -0.1484375 C-31.95114167 -9.09647854 -14.65876642 -10.51494552 0 0 Z M-38.80078125 11.50390625 C-44.18701149 21.73642678 -45.27100307 31.74376902 -45.2109375 43.1640625 C-45.20602295 44.26548584 -45.2011084 45.36690918 -45.19604492 46.50170898 C-45.01494245 59.06650591 -43.48996071 69.69505159 -34.7109375 79.2265625 C-29.91807686 81.99577087 -24.99992805 83.23924882 -19.4609375 82.546875 C-13.61428423 80.94694623 -9.98274535 78.04222694 -6.8984375 72.8515625 C0.60404946 56.49998836 0.01323003 36.33579848 -4.6328125 19.2265625 C-6.7995011 13.44872623 -8.84351434 8.65835333 -14.7109375 5.9140625 C-23.53775846 2.03541563 -32.9039696 3.28227358 -38.80078125 11.50390625 Z " fill="#211C20" transform="translate(160.8984375,49.1484375)"/>
<path d="M0 0 C-1.16651426 5.92863717 -2.75519358 11.38798394 -5 17 C-5.67546875 16.83886719 -6.3509375 16.67773438 -7.046875 16.51171875 C-10.48946106 15.91518598 -13.75598405 15.83047333 -17.25 15.8125 C-18.49265625 15.79832031 -19.7353125 15.78414063 -21.015625 15.76953125 C-25.88469381 15.94443674 -25.88469381 15.94443674 -34 18 C-34 55.62 -34 93.24 -34 132 C-41.26 132 -48.52 132 -56 132 C-56 91.08 -56 50.16 -56 8 C-39.62930613 1.17887755 -18.00023476 -4.50005869 0 0 Z " fill="#211C21" transform="translate(640,281)"/>
<path d="M0 0 C4.62 0 9.24 0 14 0 C14.01401855 2.61808594 14.01401855 2.61808594 14.02832031 5.2890625 C14.06396035 11.08072056 14.11782964 16.87205806 14.18390274 22.66343689 C14.22327316 26.17196416 14.25551207 29.6802444 14.27099609 33.18896484 C14.28915344 37.23054558 14.33914953 41.27120524 14.390625 45.3125 C14.39185364 46.5617627 14.39308228 47.81102539 14.39434814 49.09814453 C14.51229808 56.1602011 15.06726369 61.050248 19 67 C24.11775048 70.21113756 29.11640112 70.70676617 35 70 C38.96 69.01 38.96 69.01 43 68 C43 45.56 43 23.12 43 0 C47.62 0 52.24 0 57 0 C57 24.75 57 49.5 57 75 C42.4952527 80.80189892 27.03703341 84.36502893 12 78 C5.73338315 75.04404865 3.4140603 70.24193282 1 64 C0.098111 60.28221286 -0.12170637 56.8368767 -0.11352539 53.01635742 C-0.11344986 51.83551071 -0.11337433 50.654664 -0.11329651 49.43803406 C-0.10813522 48.17328751 -0.10297394 46.90854095 -0.09765625 45.60546875 C-0.0962413 44.30297684 -0.09482635 43.00048492 -0.09336853 41.65852356 C-0.08956355 38.20783546 -0.07975064 34.75718992 -0.06866455 31.30651855 C-0.05840689 27.78052343 -0.0538616 24.25452139 -0.04882812 20.72851562 C-0.03812644 13.81899124 -0.02054612 6.90950205 0 0 Z " fill="#211C20" transform="translate(520,164)"/>
<path d="M0 0 C8.35641842 5.11431073 12.25076087 12.68430366 14.89453125 21.9375 C18.02809682 36.560806 17.47141879 54.42996023 9.14453125 67.3125 C4.92214965 73.64607241 -1.02135168 77.15143563 -8.44140625 78.93359375 C-16.75377744 80.23828632 -25.17287788 79.26535483 -32.3828125 74.71875 C-40.76526412 67.91236665 -44.17790595 58.72957364 -45.85546875 48.3125 C-46.13866457 44.86936408 -46.19012991 41.45365832 -46.16796875 38 C-46.15950928 36.61687622 -46.15950928 36.61687622 -46.15087891 35.20581055 C-45.95240381 24.03323481 -43.93684644 14.25572306 -36.85546875 5.3125 C-27.07063998 -4.10124744 -12.26636958 -5.85856457 0 0 Z M-25.85546875 10.3125 C-31.60526553 19.12291213 -32.05765761 27.25048709 -32.10546875 37.5 C-32.12609375 38.58603516 -32.14671875 39.67207031 -32.16796875 40.79101562 C-32.21207923 49.97150841 -31.13552612 59.16021244 -24.85546875 66.3125 C-20.19467436 69.14553188 -16.36179105 69.85724283 -11.06640625 69.0078125 C-6.40001072 67.54028882 -3.11145068 64.63514305 -0.79296875 60.34765625 C4.15578065 47.9519907 4.01088047 30.36140737 0.1953125 17.703125 C-2.13283514 12.40637275 -5.46738621 8.53354166 -10.85546875 6.3125 C-16.65463205 5.7420905 -21.43849924 6.08897441 -25.85546875 10.3125 Z " fill="#211C20" transform="translate(496.85546875,165.6875)"/>
<path d="M0 0 C4.62 0 9.24 0 14 0 C16.60578076 6.61386924 18.62541822 13.32285309 20.57421875 20.15625 C20.86607056 21.17041992 21.15792236 22.18458984 21.45861816 23.22949219 C22.5384321 26.9853179 23.61264226 30.7427529 24.6875 34.5 C27.100625 42.915 29.51375 51.33 32 60 C37.94 40.2 43.88 20.4 50 0 C54.29 0 58.58 0 63 0 C62.43535757 4.63598039 61.54846359 8.84318595 60.05737305 13.26611328 C59.45434105 15.06997498 59.45434105 15.06997498 58.83912659 16.91027832 C58.39673608 18.21364979 57.95426447 19.51699373 57.51171875 20.8203125 C57.05146649 22.19068561 56.59179781 23.56125485 56.13267517 24.93200684 C55.15998914 27.83269323 54.18378849 30.73216132 53.20465088 33.63067627 C50.92785071 40.37124805 48.66872341 47.1177495 46.40779877 53.86365891 C45.66155284 56.08958421 44.91459053 58.31526818 44.1675415 60.54092407 C40.25162881 72.21354955 36.40435556 83.90739277 32.625 95.625 C32.37688568 96.39362366 32.12877136 97.16224731 31.87313843 97.9541626 C30.5780053 101.96815016 29.28803597 105.98371905 28 110 C23.05 110 18.1 110 13 110 C13.80622186 105.96889069 14.66356544 103.20439883 16.3203125 99.54296875 C16.99900391 97.99706055 16.99900391 97.99706055 17.69140625 96.41992188 C18.64408867 94.27184366 19.60758586 92.12852808 20.58203125 89.99023438 C21.03191406 88.95576172 21.48179687 87.92128906 21.9453125 86.85546875 C22.57203857 85.45784302 22.57203857 85.45784302 23.21142578 84.03198242 C24.82473417 77.82898649 22.78410663 71.73363566 20.77514648 65.82128906 C20.43842926 64.81967995 20.43842926 64.81967995 20.09490967 63.7978363 C19.61157273 62.36338207 19.1247621 60.93009434 18.63476372 59.49790192 C17.8589551 57.23014261 17.09256051 54.95938666 16.3283844 52.68768311 C14.70655056 47.87223894 13.07240011 43.06102042 11.4375 38.25 C9.53892499 32.6583617 7.64544261 27.06506042 5.76124763 21.46855927 C5.00628973 19.23331282 4.2438995 17.00069549 3.48106384 14.76812744 C3.01886078 13.39924222 2.55697525 12.03024974 2.09545898 10.66113281 C1.68988266 9.46836731 1.28430634 8.27560181 0.86643982 7.04669189 C0 4 0 4 0 0 Z " fill="#211C20" transform="translate(387,164)"/>
<path d="M0 0 C1.36125 0.8353125 1.36125 0.8353125 2.75 1.6875 C10.34406527 9.49251153 13.08186533 20.08686548 13.0234375 30.73046875 C13.02005371 31.53250732 13.01666992 32.3345459 13.01318359 33.16088867 C13.00665771 34.07124878 13.00665771 34.07124878 13 35 C0.90196311 36.9551025 -11.1973266 38.90356374 -23.3125 40.75 C-24.13459961 40.87737549 -24.95669922 41.00475098 -25.80371094 41.13598633 C-29.25845169 41.657119 -32.49713193 42 -36 42 C-33.57780784 53.88074359 -33.57780784 53.88074359 -26.4609375 63.375 C-19.21520978 67.97140877 -8.62886689 66.90914894 -0.51953125 65.31640625 C2.02691249 64.62791111 4.51555011 63.88429572 7 63 C10 69.625 10 69.625 10 73 C-2.14398887 77.72144233 -15.29207352 80.57309465 -28 76 C-38.25163955 71.26368021 -43.26464196 64.77293934 -47.23828125 54.39453125 C-51.00980487 42.53840828 -50.67297443 26.49958056 -46 15 C-45.74476563 14.29101562 -45.48953125 13.58203125 -45.2265625 12.8515625 C-42.31107277 5.87043571 -36.25523188 0.21990441 -29.4375 -3 C-20.03777621 -5.88786695 -8.31058418 -5.3121106 0 0 Z M-31.25 11.25 C-35.92021305 18.58890622 -36.53576624 25.48768563 -37 34 C-28.70074162 33.36953002 -20.53016783 32.24328327 -12.3125 30.9375 C-11.12205078 30.75123047 -9.93160156 30.56496094 -8.70507812 30.37304688 C-5.80287964 29.91848567 -2.9012212 29.46075017 0 29 C-0.12168031 27.25849773 -0.25396678 25.51773473 -0.390625 23.77734375 C-0.46313477 22.80788818 -0.53564453 21.83843262 -0.61035156 20.83959961 C-1.36962043 15.30635638 -3.548949 11.38026802 -7.5625 7.5625 C-15.91596418 2.20771527 -24.57690392 4.57690392 -31.25 11.25 Z " fill="#211C20" transform="translate(292,167)"/>
<path d="M0 0 C0 7.26 0 14.52 0 22 C4.62 22 9.24 22 14 22 C14 24.97 14 27.94 14 31 C9.38 31 4.76 31 0 31 C0.04411882 38.74171164 0.11391986 46.48260512 0.20751953 54.22387695 C0.23574319 56.85727425 0.2569507 59.49075649 0.27099609 62.12426758 C0.2924052 65.91011077 0.33904865 69.69493121 0.390625 73.48046875 C0.39185364 74.65772018 0.39308228 75.83497162 0.39434814 77.04789734 C0.46197752 83.44344446 0.46197752 83.44344446 2.890625 89.23828125 C5.32038652 91.26758207 6.6153456 91.67420642 9.75 91.8125 C11.1525 91.874375 12.555 91.93625 14 92 C14 94.97 14 97.94 14 101 C7.64668432 103.11777189 0.81101276 102.63177315 -5.31640625 99.96875 C-9.79231006 97.39328795 -11.6571021 93.1757877 -13.37149048 88.47387695 C-14.64548309 83.45931338 -14.36148694 78.32848092 -14.29296875 73.1875 C-14.28872391 71.97803711 -14.28447906 70.76857422 -14.28010559 69.52246094 C-14.26339038 65.68140866 -14.22575015 61.84089216 -14.1875 58 C-14.17244397 55.38672636 -14.15875717 52.77344445 -14.14648438 50.16015625 C-14.11351022 43.77325648 -14.06338184 37.38666653 -14 31 C-16.97 31 -19.94 31 -23 31 C-23 28.03 -23 25.06 -23 22 C-20.03 22 -17.06 22 -14 22 C-14 16.06 -14 10.12 -14 4 C-2.25 0 -2.25 0 0 0 Z " fill="#211C21" transform="translate(331,142)"/>
<path d="M0 0 C5.61 0 11.22 0 17 0 C17 32.34 17 64.68 17 98 C11.39 98 5.78 98 0 98 C0 65.66 0 33.32 0 0 Z " fill="#221D21" transform="translate(361,44)"/>
<path d="M0 0 C0.83144531 0.00451172 1.66289063 0.00902344 2.51953125 0.01367188 C4.55471897 0.02536836 6.58986923 0.04330065 8.625 0.0625 C8.34390887 1.71017247 8.04981474 3.35563145 7.75 5 C7.58757813 5.91652344 7.42515625 6.83304688 7.2578125 7.77734375 C7.04898438 8.53144531 6.84015625 9.28554687 6.625 10.0625 C3.912136 11.418932 1.96789035 10.69160278 -0.9140625 10.12109375 C-4.35095637 9.93028052 -4.35095637 9.93028052 -11.375 12.0625 C-11.705 34.5025 -12.035 56.9425 -12.375 80.0625 C-16.665 80.0625 -20.955 80.0625 -25.375 80.0625 C-25.375 55.3125 -25.375 30.5625 -25.375 5.0625 C-15.73843724 1.2078749 -9.89694665 -0.10259993 0 0 Z " fill="#211C20" transform="translate(612.375,162.9375)"/>
<path d="M0 0 C3.32337147 0.69838966 4.98011619 1.8689661 7.15625 4.453125 C8.46783768 8.22393959 8.34280908 9.94254225 6.96875 13.703125 C5.0736906 16.57838754 4.4197564 17.54659544 1.15625 18.453125 C-3.07619524 18.9148463 -5.11481961 18.92851438 -8.71875 16.578125 C-11.1908753 14.1059997 -11.74880979 13.1493532 -12.21875 9.703125 C-11.81749459 6.22557809 -10.92704968 4.18326425 -8.53515625 1.59375 C-5.76122758 -0.27689012 -3.26746227 -0.2396139 0 0 Z " fill="#211C20" transform="translate(371.84375,7.546875)"/>
</svg>
